<?xml version="1.0" encoding="UTF-8" standalone="no" ?>
<!DOCTYPE svg PUBLIC "-//W3C//DTD SVG 1.1//EN" "http://www.w3.org/Graphics/SVG/1.1/DTD/svg11.dtd">
<svg xmlns="http://www.w3.org/2000/svg" xmlns:xlink="http://www.w3.org/1999/xlink" version="1.1" width="500" height="450" viewBox="0 0 500 450" xml:space="preserve">
<desc>Created with Fabric.js 5.2.4</desc>
<defs>
</defs>
<g transform="matrix(Infinity NaN NaN Infinity 0 0)" id="7a0303cb-7f72-4b1e-9275-976eeb492102"  >
</g>
<g transform="matrix(1 0 0 1 250 225)" id="3ded89fe-95cf-4f2d-b1be-af26a158a110"  >
<rect style="stroke: none; stroke-width: 1; stroke-dasharray: none; stroke-linecap: butt; stroke-dashoffset: 0; stroke-linejoin: miter; stroke-miterlimit: 4; fill: rgb(255,255,255); fill-rule: nonzero; opacity: 1; visibility: hidden;" vector-effect="non-scaling-stroke"  x="-250" y="-225" rx="0" ry="0" width="500" height="450" />
</g>
<g transform="matrix(0.87 0 0 0.87 250 225)"  >
<g style="" vector-effect="non-scaling-stroke"   >
		<g transform="matrix(1 0 0 1 -196.5 -119)"  >
<path style="stroke: none; stroke-width: 1; stroke-dasharray: none; stroke-linecap: butt; stroke-dashoffset: 0; stroke-linejoin: miter; stroke-miterlimit: 4; fill: rgb(246,199,108); fill-rule: nonzero; opacity: 1;" vector-effect="non-scaling-stroke"  transform=" translate(-51, -124)" d="M 0 0 L 32 0 L 49 17 L 57 24 L 68 35 L 76 42 L 93 58 L 100 65 L 107 71 L 112 78 L 114 84 L 114 116 L 113 190 L 110 197 L 106 200 L 98 200 L 97 196 L 97 102 L 87 92 L 79 85 L 70 76 L 62 69 L 54 61 L 52 60 L 52 58 L 50 58 L 50 56 L 48 56 L 48 54 L 44 52 L 34 42 L 29 38 L 26 38 L 28 42 L 32 47 L 40 54 L 50 64 L 58 71 L 70 83 L 78 90 L 91 102 L 93 106 L 93 200 L 88 199 L 87 105 L 75 94 L 62 82 L 54 74 L 46 67 L 32 53 L 27 51 L 27 54 L 52 79 L 60 86 L 76 101 L 82 106 L 83 108 L 84 199 L 80 200 L 71 200 L 66 205 L 63 206 L 61 212 L 46 226 L 37 236 L 30 248 L -12 248 L -11 244 L -6 242 L -6 36 L -5 4 L 0 4 z M 16 10 L 10 15 L 9 23 L 12 28 L 15 31 L 24 31 L 29 28 L 31 19 L 28 13 L 24 10 z M 28 63 L 25 66 L 40 81 L 48 88 L 58 98 L 66 105 L 72 110 L 73 121 L 74 193 L 78 193 L 78 109 L 67 98 L 59 91 L 50 82 L 42 75 L 30 63 z M 27 76 L 26 80 L 44 98 L 52 105 L 62 114 L 66 113 L 65 109 L 53 98 L 45 90 L 37 83 L 30 76 z M 27 90 L 26 93 L 30 98 L 38 105 L 48 115 L 52 115 L 51 110 L 41 100 L 33 93 L 30 90 z M 56 121 L 58 125 L 63 130 L 64 191 L 69 192 L 69 130 L 62 123 L 59 121 z M 15 216 L 10 221 L 9 228 L 12 234 L 17 237 L 26 236 L 30 231 L 30 221 L 24 216 z" stroke-linecap="round" />
</g>
		<g transform="matrix(1 0 0 1 -141 42)"  >
<path style="stroke: none; stroke-width: 1; stroke-dasharray: none; stroke-linecap: butt; stroke-dashoffset: 0; stroke-linejoin: miter; stroke-miterlimit: 4; fill: rgb(253,253,253); fill-rule: nonzero; opacity: 1;" vector-effect="non-scaling-stroke"  transform=" translate(-7.5, -74)" d="M 0 0 L 18 0 L 34 4 L 48 11 L 59 19 L 68 28 L 73 35 L 77 43 L 76 48 L 75 49 L 66 50 L 56 50 L 46 49 L 33 35 L 22 30 L 19 29 L 0 29 L -11 33 L -19 39 L -26 47 L -31 60 L -32 64 L -32 86 L -28 98 L -22 108 L -14 115 L -4 120 L 3 122 L 18 122 L 30 118 L 39 112 L 46 103 L 50 93 L 28 93 L 15 92 L 14 91 L 14 72 L 16 70 L 25 69 L 67 69 L 76 70 L 78 72 L 79 121 L 79 144 L 77 147 L 58 147 L 57 146 L 56 128 L 49 134 L 40 141 L 29 146 L 20 148 L -5 148 L -20 144 L -33 137 L -43 129 L -53 116 L -60 102 L -64 85 L -64 63 L -60 47 L -53 33 L -44 22 L -34 13 L -19 5 L -6 1 z" stroke-linecap="round" />
</g>
		<g transform="matrix(1 0 0 1 199.5 43)"  >
<path style="stroke: none; stroke-width: 1; stroke-dasharray: none; stroke-linecap: butt; stroke-dashoffset: 0; stroke-linejoin: miter; stroke-miterlimit: 4; fill: rgb(254,254,254); fill-rule: nonzero; opacity: 1;" vector-effect="non-scaling-stroke"  transform=" translate(-14, -72)" d="M 0 0 L 27 0 L 32 8 L 43 35 L 53 59 L 65 87 L 81 125 L 87 140 L 86 144 L 57 144 L 53 139 L 44 117 L 44 114 L -14 114 L -19 126 L -26 142 L -30 144 L -58 144 L -59 142 L -51 122 L -42 101 L -26 62 L -11 25 L -1 1 z M 14 40 L 9 50 L -1 75 L -5 86 L -4 90 L 33 90 L 34 87 L 26 65 L 17 43 z" stroke-linecap="round" />
</g>
		<g transform="matrix(1 0 0 1 6.5 44)"  >
<path style="stroke: none; stroke-width: 1; stroke-dasharray: none; stroke-linecap: butt; stroke-dashoffset: 0; stroke-linejoin: miter; stroke-miterlimit: 4; fill: rgb(254,254,254); fill-rule: nonzero; opacity: 1;" vector-effect="non-scaling-stroke"  transform=" translate(-56, -73)" d="M 0 0 L 28 0 L 29 1 L 30 97 L 32 105 L 36 112 L 43 117 L 51 119 L 61 119 L 72 115 L 79 107 L 81 103 L 82 97 L 83 0 L 113 0 L 113 98 L 109 114 L 103 126 L 93 136 L 79 143 L 71 145 L 62 146 L 52 146 L 38 144 L 26 140 L 17 134 L 10 127 L 3 113 L 1 102 L 0 90 L -1 55 L -1 1 z" stroke-linecap="round" />
</g>
		<g transform="matrix(1 0 0 1 -39 -92)"  >
<path style="stroke: none; stroke-width: 1; stroke-dasharray: none; stroke-linecap: butt; stroke-dashoffset: 0; stroke-linejoin: miter; stroke-miterlimit: 4; fill: rgb(246,199,108); fill-rule: nonzero; opacity: 1;" vector-effect="non-scaling-stroke"  transform=" translate(-17.5, -46)" d="M 0 0 L 35 0 L 40 5 L 45 9 L 45 11 L 49 13 L 62 26 L 62 64 L 61 67 L 53 74 L 39 88 L 37 88 L 37 90 L 32 92 L 1 92 L -7 85 L -12 81 L -16 77 L -16 75 L -20 73 L -27 66 L -27 26 L -9 8 L -7 8 L -5 4 z" stroke-linecap="round" />
</g>
		<g transform="matrix(1 0 0 1 -82 -224)"  >
<path style="stroke: none; stroke-width: 1; stroke-dasharray: none; stroke-linecap: butt; stroke-dashoffset: 0; stroke-linejoin: miter; stroke-miterlimit: 4; fill: rgb(246,199,108); fill-rule: nonzero; opacity: 1;" vector-effect="non-scaling-stroke"  transform=" translate(-78.5, -24)" d="M 0 0 L 6 0 L 6 19 L 11 19 L 11 0 L 16 0 L 17 1 L 17 19 L 21 19 L 21 0 L 27 0 L 27 19 L 32 19 L 32 0 L 38 0 L 39 18 L 43 19 L 43 0 L 49 0 L 49 19 L 54 19 L 54 0 L 60 0 L 60 19 L 64 19 L 65 0 L 71 0 L 71 19 L 76 19 L 76 0 L 82 0 L 82 19 L 87 19 L 87 0 L 93 0 L 93 19 L 98 19 L 98 0 L 104 0 L 105 1 L 105 20 L 109 22 L 119 25 L 120 26 L 133 27 L 157 27 L 180 28 L 181 29 L 181 35 L 180 36 L 134 37 L 121 48 L -1 48 L -13 37 L -24 27 L -24 24 L -3 23 L -1 19 z" stroke-linecap="round" />
</g>
		<g transform="matrix(1 0 0 1 -60 -121.5)"  >
<path style="stroke: none; stroke-width: 1; stroke-dasharray: none; stroke-linecap: butt; stroke-dashoffset: 0; stroke-linejoin: miter; stroke-miterlimit: 4; fill: rgb(246,199,108); fill-rule: nonzero; opacity: 1;" vector-effect="non-scaling-stroke"  transform=" translate(-94.5, -73.5)" d="M 0 0 L 175 0 L 175 8 L 66 9 L 54 20 L 38 35 L 36 40 L 40 39 L 53 26 L 55 26 L 57 22 L 67 13 L 69 12 L 175 12 L 175 20 L 71 21 L 61 30 L 56 34 L 38 52 L 37 57 L 45 51 L 70 26 L 72 25 L 175 25 L 175 32 L 174 33 L 169 33 L 170 48 L 183 60 L 184 62 L 184 70 L 189 70 L 189 74 L 180 74 L 179 73 L 178 64 L 171 56 L 164 50 L 164 33 L 74 34 L 63 45 L 55 52 L 39 68 L 37 68 L 38 143 L 39 146 L 32 147 L 31 35 L 27 27 L 19 19 L 11 12 L 0 2 z" stroke-linecap="round" />
</g>
		<g transform="matrix(1 0 0 1 -66 191.5)"  >
<path style="stroke: none; stroke-width: 1; stroke-dasharray: none; stroke-linecap: butt; stroke-dashoffset: 0; stroke-linejoin: miter; stroke-miterlimit: 4; fill: rgb(254,254,254); fill-rule: nonzero; opacity: 1;" vector-effect="non-scaling-stroke"  transform=" translate(-36.5, -55.5)" d="M 0 0 L 74 0 L 74 16 L 72 18 L 19 18 L 20 44 L 65 45 L 68 46 L 68 63 L 20 64 L 20 91 L 73 92 L 75 94 L 75 108 L 74 110 L 24 111 L -1 110 L -2 108 L -2 9 L -1 1 z" stroke-linecap="round" />
</g>
		<g transform="matrix(1 0 0 1 -163 191)"  >
<path style="stroke: none; stroke-width: 1; stroke-dasharray: none; stroke-linecap: butt; stroke-dashoffset: 0; stroke-linejoin: miter; stroke-miterlimit: 4; fill: rgb(254,254,254); fill-rule: nonzero; opacity: 1;" vector-effect="non-scaling-stroke"  transform=" translate(-7.5, -57)" d="M 0 0 L 15 0 L 27 3 L 38 11 L 44 19 L 46 24 L 46 31 L 45 32 L 34 32 L 29 30 L 23 23 L 15 19 L -1 19 L -7 22 L -11 27 L -11 35 L -7 40 L 9 46 L 26 51 L 37 57 L 43 62 L 48 72 L 49 78 L 49 86 L 46 96 L 40 104 L 31 110 L 19 114 L -1 114 L -12 111 L -21 106 L -29 98 L -34 87 L -34 78 L -32 77 L -16 77 L -14 79 L -10 91 L -5 93 L 1 95 L 14 95 L 23 92 L 27 87 L 28 85 L 28 78 L 23 73 L 11 68 L -11 61 L -21 56 L -28 49 L -32 39 L -32 27 L -28 16 L -21 8 L -9 2 z" stroke-linecap="round" />
</g>
		<g transform="matrix(1 0 0 1 131 192)"  >
<path style="stroke: none; stroke-width: 1; stroke-dasharray: none; stroke-linecap: butt; stroke-dashoffset: 0; stroke-linejoin: miter; stroke-miterlimit: 4; fill: rgb(254,254,254); fill-rule: nonzero; opacity: 1;" vector-effect="non-scaling-stroke"  transform=" translate(-41.5, -56)" d="M 0 0 L 19 0 L 20 74 L 23 84 L 28 90 L 37 93 L 46 93 L 55 90 L 60 85 L 63 79 L 64 72 L 65 1 L 66 0 L 84 0 L 85 1 L 85 74 L 82 89 L 77 98 L 70 105 L 60 110 L 53 112 L 31 112 L 19 108 L 9 101 L 3 93 L -1 81 L -2 69 L -2 10 L -1 1 z" stroke-linecap="round" />
</g>
		<g transform="matrix(1 0 0 1 238.5 190.5)"  >
<path style="stroke: none; stroke-width: 1; stroke-dasharray: none; stroke-linecap: butt; stroke-dashoffset: 0; stroke-linejoin: miter; stroke-miterlimit: 4; fill: rgb(254,254,254); fill-rule: nonzero; opacity: 1;" vector-effect="non-scaling-stroke"  transform=" translate(-35, -55.5)" d="M 0 0 L 37 0 L 51 2 L 63 8 L 69 13 L 74 22 L 76 29 L 76 42 L 72 54 L 63 64 L 53 69 L 45 71 L 14 71 L 14 111 L -6 111 L -6 1 z M 15 18 L 14 19 L 14 52 L 15 53 L 40 53 L 48 50 L 53 44 L 55 38 L 54 28 L 50 22 L 45 19 L 40 18 z" stroke-linecap="round" />
</g>
		<g transform="matrix(1 0 0 1 101 43)"  >
<path style="stroke: none; stroke-width: 1; stroke-dasharray: none; stroke-linecap: butt; stroke-dashoffset: 0; stroke-linejoin: miter; stroke-miterlimit: 4; fill: rgb(254,254,254); fill-rule: nonzero; opacity: 1;" vector-effect="non-scaling-stroke"  transform=" translate(-14.5, -72)" d="M 0 0 L 30 0 L 30 143 L 29 144 L 1 144 L -1 137 L -1 10 z" stroke-linecap="round" />
</g>
		<g transform="matrix(1 0 0 1 26.5 191.5)"  >
<path style="stroke: none; stroke-width: 1; stroke-dasharray: none; stroke-linecap: butt; stroke-dashoffset: 0; stroke-linejoin: miter; stroke-miterlimit: 4; fill: rgb(254,254,254); fill-rule: nonzero; opacity: 1;" vector-effect="non-scaling-stroke"  transform=" translate(-44, -55.5)" d="M 0 0 L 88 0 L 89 1 L 89 15 L 88 17 L 56 18 L 55 110 L 36 111 L 34 109 L 34 18 L 0 17 L -1 11 L -1 3 z" stroke-linecap="round" />
</g>
		<g transform="matrix(1 0 0 1 74 -111.5)"  >
<path style="stroke: none; stroke-width: 1; stroke-dasharray: none; stroke-linecap: butt; stroke-dashoffset: 0; stroke-linejoin: miter; stroke-miterlimit: 4; fill: rgb(246,199,108); fill-rule: nonzero; opacity: 1;" vector-effect="non-scaling-stroke"  transform=" translate(-4.5, -72.5)" d="M 0 0 L 10 0 L 10 144 L 9 145 L 0 145 L -1 144 L -1 1 z" stroke-linecap="round" />
</g>
		<g transform="matrix(1 0 0 1 103 -111.5)"  >
<path style="stroke: none; stroke-width: 1; stroke-dasharray: none; stroke-linecap: butt; stroke-dashoffset: 0; stroke-linejoin: miter; stroke-miterlimit: 4; fill: rgb(246,199,108); fill-rule: nonzero; opacity: 1;" vector-effect="non-scaling-stroke"  transform=" translate(-5.5, -72.5)" d="M 0 0 L 10 0 L 11 65 L 11 144 L 10 145 L 0 145 z" stroke-linecap="round" />
</g>
		<g transform="matrix(1 0 0 1 45 -111.5)"  >
<path style="stroke: none; stroke-width: 1; stroke-dasharray: none; stroke-linecap: butt; stroke-dashoffset: 0; stroke-linejoin: miter; stroke-miterlimit: 4; fill: rgb(246,200,111); fill-rule: nonzero; opacity: 1;" vector-effect="non-scaling-stroke"  transform=" translate(-4.5, -72.5)" d="M 0 0 L 10 0 L 10 145 L 0 145 L -1 104 L -1 68 z" stroke-linecap="round" />
</g>
		<g transform="matrix(1 0 0 1 88.5 -111.5)"  >
<path style="stroke: none; stroke-width: 1; stroke-dasharray: none; stroke-linecap: butt; stroke-dashoffset: 0; stroke-linejoin: miter; stroke-miterlimit: 4; fill: rgb(246,199,108); fill-rule: nonzero; opacity: 1;" vector-effect="non-scaling-stroke"  transform=" translate(-5, -72.5)" d="M 0 0 L 10 0 L 10 145 L 1 145 L 0 144 z" stroke-linecap="round" />
</g>
		<g transform="matrix(1 0 0 1 59.5 -111.5)"  >
<path style="stroke: none; stroke-width: 1; stroke-dasharray: none; stroke-linecap: butt; stroke-dashoffset: 0; stroke-linejoin: miter; stroke-miterlimit: 4; fill: rgb(246,199,108); fill-rule: nonzero; opacity: 1;" vector-effect="non-scaling-stroke"  transform=" translate(-5, -72.5)" d="M 0 0 L 10 0 L 10 145 L 1 145 L 0 137 z" stroke-linecap="round" />
</g>
		<g transform="matrix(1 0 0 1 -219.5 73.5)"  >
<path style="stroke: none; stroke-width: 1; stroke-dasharray: none; stroke-linecap: butt; stroke-dashoffset: 0; stroke-linejoin: miter; stroke-miterlimit: 4; fill: rgb(246,200,112); fill-rule: nonzero; opacity: 1;" vector-effect="non-scaling-stroke"  transform=" translate(-19, -55.5)" d="M 0 0 L 7 0 L 13 4 L 16 11 L 14 18 L 8 23 L -2 24 L -2 73 L 26 74 L 27 89 L 36 87 L 43 90 L 46 94 L 47 100 L 44 107 L 40 110 L 33 111 L 27 108 L 24 105 L 23 102 L 23 95 L 24 91 L 20 88 L 21 79 L -7 78 L -8 77 L -8 17 L -9 10 L -6 4 L -3 1 z M 0 5 L -3 7 L -4 14 L 0 19 L 7 19 L 11 14 L 10 8 L 7 5 z M 32 92 L 28 96 L 28 102 L 32 106 L 38 106 L 42 102 L 42 96 L 38 92 z" stroke-linecap="round" />
</g>
		<g transform="matrix(1 0 0 1 141 -181.5)"  >
<path style="stroke: none; stroke-width: 1; stroke-dasharray: none; stroke-linecap: butt; stroke-dashoffset: 0; stroke-linejoin: miter; stroke-miterlimit: 4; fill: rgb(246,199,108); fill-rule: nonzero; opacity: 1;" vector-effect="non-scaling-stroke"  transform=" translate(-29.5, -38.5)" d="M 0 0 L 9 0 L 15 5 L 17 11 L 16 18 L 14 20 L 13 59 L 51 58 L 55 55 L 65 55 L 69 57 L 72 62 L 72 70 L 67 76 L 65 77 L 56 77 L 51 74 L 49 70 L 49 64 L 8 64 L 8 23 L 1 23 L -5 19 L -7 14 L -13 12 L -13 9 L -7 7 L -2 1 z M 3 4 L -2 8 L -2 14 L 3 19 L 9 18 L 12 15 L 12 9 L 7 4 z M 57 59 L 53 64 L 54 70 L 57 73 L 64 73 L 68 68 L 67 62 L 63 59 z" stroke-linecap="round" />
</g>
		<g transform="matrix(1 0 0 1 167 -65)"  >
<path style="stroke: none; stroke-width: 1; stroke-dasharray: none; stroke-linecap: butt; stroke-dashoffset: 0; stroke-linejoin: miter; stroke-miterlimit: 4; fill: rgb(246,199,109); fill-rule: nonzero; opacity: 1;" vector-effect="non-scaling-stroke"  transform=" translate(-52.5, -17)" d="M 0 0 L 30 1 L 30 4 L 41 5 L 50 14 L 55 20 L 98 21 L 105 22 L 105 23 L 54 23 L 45 13 L 41 9 L 22 8 L 21 11 L 2 11 L 2 13 L 29 14 L 31 17 L 42 18 L 51 27 L 54 31 L 76 32 L 76 33 L 54 34 L 42 22 L 22 21 L 22 24 L 0 25 z" stroke-linecap="round" />
</g>
		<g transform="matrix(1 0 0 1 183.5 -94)"  >
<path style="stroke: none; stroke-width: 1; stroke-dasharray: none; stroke-linecap: butt; stroke-dashoffset: 0; stroke-linejoin: miter; stroke-miterlimit: 4; fill: rgb(246,199,109); fill-rule: nonzero; opacity: 1;" vector-effect="non-scaling-stroke"  transform=" translate(-68, -15)" d="M 0 0 L 28 1 L 29 4 L 39 4 L 59 24 L 60 26 L 134 27 L 137 29 L 132 30 L 61 30 L 54 24 L 48 17 L 41 11 L 38 8 L 29 8 L 21 9 L 21 11 L 18 12 L -1 12 L -1 1 z" stroke-linecap="round" />
</g>
		<g transform="matrix(1 0 0 1 168 -108.5)"  >
<path style="stroke: none; stroke-width: 1; stroke-dasharray: none; stroke-linecap: butt; stroke-dashoffset: 0; stroke-linejoin: miter; stroke-miterlimit: 4; fill: rgb(246,199,109); fill-rule: nonzero; opacity: 1;" vector-effect="non-scaling-stroke"  transform=" translate(-53.5, -13.5)" d="M 0 0 L 20 0 L 21 1 L 30 3 L 32 4 L 45 5 L 64 24 L 104 25 L 107 27 L 63 27 L 58 23 L 58 21 L 54 19 L 47 11 L 43 8 L 21 7 L 20 11 L 1 12 L 0 11 z" stroke-linecap="round" />
</g>
		<g transform="matrix(1 0 0 1 -269.5 -39.5)"  >
<path style="stroke: none; stroke-width: 1; stroke-dasharray: none; stroke-linecap: butt; stroke-dashoffset: 0; stroke-linejoin: miter; stroke-miterlimit: 4; fill: rgb(246,199,108); fill-rule: nonzero; opacity: 1;" vector-effect="non-scaling-stroke"  transform=" translate(-9, -13.5)" d="M 0 0 L 9 0 L 9 6 L 18 6 L 19 7 L 19 21 L 18 22 L 9 22 L 8 27 L 1 27 L -1 25 L -1 1 z" stroke-linecap="round" />
</g>
		<g transform="matrix(1 0 0 1 -269.5 -150)"  >
<path style="stroke: none; stroke-width: 1; stroke-dasharray: none; stroke-linecap: butt; stroke-dashoffset: 0; stroke-linejoin: miter; stroke-miterlimit: 4; fill: rgb(246,199,108); fill-rule: nonzero; opacity: 1;" vector-effect="non-scaling-stroke"  transform=" translate(-9, -13)" d="M 0 0 L 9 0 L 9 6 L 19 6 L 19 21 L 18 22 L 9 22 L 9 26 L -1 26 L -1 1 z" stroke-linecap="round" />
</g>
		<g transform="matrix(1 0 0 1 -6.5 -203.5)"  >
<path style="stroke: none; stroke-width: 1; stroke-dasharray: none; stroke-linecap: butt; stroke-dashoffset: 0; stroke-linejoin: miter; stroke-miterlimit: 4; fill: rgb(246,199,108); fill-rule: nonzero; opacity: 1;" vector-effect="non-scaling-stroke"  transform=" translate(-17, -4.5)" d="M 0 0 L 43 0 L 44 1 L 44 8 L -9 9 L -10 7 L -2 1 z" stroke-linecap="round" />
</g>
		<g transform="matrix(1 0 0 1 -269 -232)"  >
<path style="stroke: none; stroke-width: 1; stroke-dasharray: none; stroke-linecap: butt; stroke-dashoffset: 0; stroke-linejoin: miter; stroke-miterlimit: 4; fill: rgb(246,199,109); fill-rule: nonzero; opacity: 1;" vector-effect="non-scaling-stroke"  transform=" translate(-3.5, -14)" d="M 0 0 L 3 1 L 4 7 L 13 8 L 13 22 L 12 23 L 3 23 L 3 28 L -6 28 L -6 1 z" stroke-linecap="round" />
</g>
		<g transform="matrix(1 0 0 1 152.5 -58.5)"  >
<path style="stroke: none; stroke-width: 1; stroke-dasharray: none; stroke-linecap: butt; stroke-dashoffset: 0; stroke-linejoin: miter; stroke-miterlimit: 4; fill: rgb(246,200,112); fill-rule: nonzero; opacity: 1;" vector-effect="non-scaling-stroke"  transform=" translate(-37, -10.5)" d="M 0 0 L 28 1 L 30 4 L 41 5 L 50 14 L 53 18 L 75 19 L 75 20 L 53 21 L 41 9 L 21 8 L 21 11 L -1 12 L -1 1 z" stroke-linecap="round" />
</g>
		<g transform="matrix(1 0 0 1 136.5 -50)"  >
<path style="stroke: none; stroke-width: 1; stroke-dasharray: none; stroke-linecap: butt; stroke-dashoffset: 0; stroke-linejoin: miter; stroke-miterlimit: 4; fill: rgb(246,201,113); fill-rule: nonzero; opacity: 1;" vector-effect="non-scaling-stroke"  transform=" translate(-22, -6)" d="M 0 0 L 30 1 L 31 3 L 43 4 L 44 7 L 31 8 L 28 9 L 21 9 L 21 11 L 13 12 L 0 12 z" stroke-linecap="round" />
</g>
		<g transform="matrix(1 0 0 1 136.5 -89)"  >
<path style="stroke: none; stroke-width: 1; stroke-dasharray: none; stroke-linecap: butt; stroke-dashoffset: 0; stroke-linejoin: miter; stroke-miterlimit: 4; fill: rgb(246,199,110); fill-rule: nonzero; opacity: 1;" vector-effect="non-scaling-stroke"  transform=" translate(-22, -6)" d="M 0 0 L 29 0 L 30 4 L 43 4 L 44 7 L 22 8 L 20 11 L 1 12 L 0 11 z" stroke-linecap="round" />
</g>
		<g transform="matrix(1 0 0 1 54.5 -208.5)"  >
<path style="stroke: none; stroke-width: 1; stroke-dasharray: none; stroke-linecap: butt; stroke-dashoffset: 0; stroke-linejoin: miter; stroke-miterlimit: 4; fill: rgb(246,199,108); fill-rule: nonzero; opacity: 1;" vector-effect="non-scaling-stroke"  transform=" translate(-13, -11.5)" d="M 0 0 L 9 0 L 14 4 L 15 8 L 30 9 L 33 11 L 33 13 L 16 14 L 14 20 L 9 23 L 0 23 L -5 20 L -7 16 L -7 7 L -5 3 z M 2 4 L -3 9 L -2 16 L 2 19 L 9 18 L 12 13 L 11 7 L 7 4 z" stroke-linecap="round" />
</g>
		<g transform="matrix(1 0 0 1 -240 127)"  >
<path style="stroke: none; stroke-width: 1; stroke-dasharray: none; stroke-linecap: butt; stroke-dashoffset: 0; stroke-linejoin: miter; stroke-miterlimit: 4; fill: rgb(246,199,110); fill-rule: nonzero; opacity: 1;" vector-effect="non-scaling-stroke"  transform=" translate(-2.5, -12)" d="M 0 0 L 7 1 L 13 6 L 14 8 L 14 16 L 10 22 L 5 24 L -3 23 L -8 19 L -9 17 L -9 7 L -4 2 z M 0 5 L -5 9 L -5 15 L -1 19 L 5 19 L 9 16 L 9 9 L 5 5 z" stroke-linecap="round" />
</g>
		<g transform="matrix(1 0 0 1 -74 -128.5)"  >
<path style="stroke: none; stroke-width: 1; stroke-dasharray: none; stroke-linecap: butt; stroke-dashoffset: 0; stroke-linejoin: miter; stroke-miterlimit: 4; fill: rgb(246,199,110); fill-rule: nonzero; opacity: 1;" vector-effect="non-scaling-stroke"  transform=" translate(3.5, -11.5)" d="M 0 0 L 8 0 L 8 3 L 0 10 L -13 23 L -15 23 L -15 15 z" stroke-linecap="round" />
</g>
		<g transform="matrix(1 0 0 1 -3.5 -56.5)"  >
<path style="stroke: none; stroke-width: 1; stroke-dasharray: none; stroke-linecap: butt; stroke-dashoffset: 0; stroke-linejoin: miter; stroke-miterlimit: 4; fill: rgb(246,201,115); fill-rule: nonzero; opacity: 1;" vector-effect="non-scaling-stroke"  transform=" translate(10, -11.5)" d="M 0 0 L 2 0 L 2 7 L -2 12 L -10 19 L -15 23 L -22 22 L -18 17 L -16 17 L -14 13 L -10 11 L -8 7 z" stroke-linecap="round" />
</g>
		<g transform="matrix(1 0 0 1 -3.5 -129)"  >
<path style="stroke: none; stroke-width: 1; stroke-dasharray: none; stroke-linecap: butt; stroke-dashoffset: 0; stroke-linejoin: miter; stroke-miterlimit: 4; fill: rgb(246,199,108); fill-rule: nonzero; opacity: 1;" vector-effect="non-scaling-stroke"  transform=" translate(-12, -11)" d="M 0 0 L 6 0 L 12 4 L 23 15 L 24 22 L 21 22 L 11 13 L 0 2 z" stroke-linecap="round" />
</g>
		<g transform="matrix(1 0 0 1 -74.5 -55.5)"  >
<path style="stroke: none; stroke-width: 1; stroke-dasharray: none; stroke-linecap: butt; stroke-dashoffset: 0; stroke-linejoin: miter; stroke-miterlimit: 4; fill: rgb(246,200,111); fill-rule: nonzero; opacity: 1;" vector-effect="non-scaling-stroke"  transform=" translate(-11, -11.5)" d="M 0 0 L 4 2 L 23 21 L 23 23 L 16 23 L 1 9 L -1 3 z" stroke-linecap="round" />
</g>
		<g transform="matrix(1 0 0 1 -267 -191)"  >
<path style="stroke: none; stroke-width: 1; stroke-dasharray: none; stroke-linecap: butt; stroke-dashoffset: 0; stroke-linejoin: miter; stroke-miterlimit: 4; fill: rgb(246,199,108); fill-rule: nonzero; opacity: 1;" vector-effect="non-scaling-stroke"  transform=" translate(-9.5, -4)" d="M 0 0 L 19 0 L 19 8 L 0 8 z" stroke-linecap="round" />
</g>
		<g transform="matrix(1 0 0 1 -267 -203)"  >
<path style="stroke: none; stroke-width: 1; stroke-dasharray: none; stroke-linecap: butt; stroke-dashoffset: 0; stroke-linejoin: miter; stroke-miterlimit: 4; fill: rgb(246,199,108); fill-rule: nonzero; opacity: 1;" vector-effect="non-scaling-stroke"  transform=" translate(-9.5, -4)" d="M 0 0 L 19 0 L 19 7 L 18 8 L 0 8 z" stroke-linecap="round" />
</g>
		<g transform="matrix(1 0 0 1 -267.5 -179)"  >
<path style="stroke: none; stroke-width: 1; stroke-dasharray: none; stroke-linecap: butt; stroke-dashoffset: 0; stroke-linejoin: miter; stroke-miterlimit: 4; fill: rgb(246,199,108); fill-rule: nonzero; opacity: 1;" vector-effect="non-scaling-stroke"  transform=" translate(2, -4)" d="M 0 0 L 7 0 L 8 1 L 8 8 L -12 8 L -11 1 z" stroke-linecap="round" />
</g>
		<g transform="matrix(1 0 0 1 -227.5 -17)"  >
<path style="stroke: none; stroke-width: 1; stroke-dasharray: none; stroke-linecap: butt; stroke-dashoffset: 0; stroke-linejoin: miter; stroke-miterlimit: 4; fill: rgb(246,199,108); fill-rule: nonzero; opacity: 1;" vector-effect="non-scaling-stroke"  transform=" translate(-3, -6)" d="M 0 0 L 6 0 L 9 4 L 8 10 L 6 12 L 0 12 L -3 8 L -2 2 z" stroke-linecap="round" />
</g>
		<g transform="matrix(1 0 0 1 -264.5 -108.5)"  >
<path style="stroke: none; stroke-width: 1; stroke-dasharray: none; stroke-linecap: butt; stroke-dashoffset: 0; stroke-linejoin: miter; stroke-miterlimit: 4; fill: rgb(246,200,113); fill-rule: nonzero; opacity: 1;" vector-effect="non-scaling-stroke"  transform=" translate(-3, -4.5)" d="M 0 0 L 8 0 L 10 1 L 10 8 L 9 9 L -3 9 L -4 8 L -4 1 z" stroke-linecap="round" />
</g>
		<g transform="matrix(1 0 0 1 -264.5 -121)"  >
<path style="stroke: none; stroke-width: 1; stroke-dasharray: none; stroke-linecap: butt; stroke-dashoffset: 0; stroke-linejoin: miter; stroke-miterlimit: 4; fill: rgb(246,199,108); fill-rule: nonzero; opacity: 1;" vector-effect="non-scaling-stroke"  transform=" translate(-7, -4)" d="M 0 0 L 14 0 L 14 8 L 0 8 z" stroke-linecap="round" />
</g>
		<g transform="matrix(1 0 0 1 -264.5 -71)"  >
<path style="stroke: none; stroke-width: 1; stroke-dasharray: none; stroke-linecap: butt; stroke-dashoffset: 0; stroke-linejoin: miter; stroke-miterlimit: 4; fill: rgb(246,199,109); fill-rule: nonzero; opacity: 1;" vector-effect="non-scaling-stroke"  transform=" translate(-7, -4)" d="M 0 0 L 14 0 L 14 8 L 1 8 L 0 7 z" stroke-linecap="round" />
</g>
		<g transform="matrix(1 0 0 1 -264.5 -84)"  >
<path style="stroke: none; stroke-width: 1; stroke-dasharray: none; stroke-linecap: butt; stroke-dashoffset: 0; stroke-linejoin: miter; stroke-miterlimit: 4; fill: rgb(246,199,110); fill-rule: nonzero; opacity: 1;" vector-effect="non-scaling-stroke"  transform=" translate(-6, -4)" d="M 0 0 L 13 0 L 13 8 L -1 8 L -1 1 z" stroke-linecap="round" />
</g>
		<g transform="matrix(1 0 0 1 -264.5 -96)"  >
<path style="stroke: none; stroke-width: 1; stroke-dasharray: none; stroke-linecap: butt; stroke-dashoffset: 0; stroke-linejoin: miter; stroke-miterlimit: 4; fill: rgb(246,199,108); fill-rule: nonzero; opacity: 1;" vector-effect="non-scaling-stroke"  transform=" translate(-6, -4)" d="M 0 0 L 13 0 L 13 8 L 0 8 L -1 7 L -1 1 z" stroke-linecap="round" />
</g>
		<g transform="matrix(1 0 0 1 -227.5 -223)"  >
<path style="stroke: none; stroke-width: 1; stroke-dasharray: none; stroke-linecap: butt; stroke-dashoffset: 0; stroke-linejoin: miter; stroke-miterlimit: 4; fill: rgb(246,199,108); fill-rule: nonzero; opacity: 1;" vector-effect="non-scaling-stroke"  transform=" translate(-2, -6)" d="M 0 0 L 5 1 L 8 5 L 7 10 L 5 12 L -1 12 L -4 9 L -4 4 z" stroke-linecap="round" />
</g>
</g>
</g>
</svg>