<svg width="194" height="172" viewBox="0 0 194 172" fill="none" xmlns="http://www.w3.org/2000/svg">
<path d="M11.6289 1.77734H22.6602L28.5205 7.6377L31.2783 10.0508L35.0703 13.8428L37.8281 16.2559L43.6885 21.7715L46.1016 24.1846L48.5146 26.2529L50.2383 28.666L50.9277 30.7344V41.7656L50.583 67.2754L49.5488 69.6885L48.1699 70.7227H45.4121L45.0674 69.3438V36.9395L41.6201 33.4922L38.8623 31.0791L35.7598 27.9766L33.002 25.5635L30.2441 22.8057L29.5547 22.4609V21.7715H28.8652V21.082H28.1758V20.3926L26.7969 19.7031L23.3496 16.2559L21.626 14.877H20.5918L21.2812 16.2559L22.6602 17.9795L25.418 20.3926L28.8652 23.8398L31.623 26.2529L35.7598 30.3896L38.5176 32.8027L42.999 36.9395L43.6885 38.3184V70.7227L41.9648 70.3779L41.6201 37.9736L37.4834 34.1816L33.002 30.0449L30.2441 27.2871L27.4863 24.874L22.6602 20.0479L20.9365 19.3584V20.3926L29.5547 29.0107L32.3125 31.4238L37.8281 36.5947L39.8965 38.3184L40.2412 39.0078L40.5859 70.3779L39.207 70.7227H36.1045L34.3809 72.4463L33.3467 72.791L32.6572 74.8594L27.4863 79.6855L24.3838 83.1328L21.9707 87.2695H7.49219L7.83691 85.8906L9.56055 85.2012V14.1875L9.90527 3.15625H11.6289V1.77734ZM17.1445 5.22461L15.0762 6.94824L14.7314 9.70605L15.7656 11.4297L16.7998 12.4639H19.9023L21.626 11.4297L22.3154 8.32715L21.2812 6.25879L19.9023 5.22461H17.1445ZM21.2812 23.4951L20.2471 24.5293L25.418 29.7002L28.1758 32.1133L31.623 35.5605L34.3809 37.9736L36.4492 39.6973L36.7939 43.4893L37.1387 68.3096H38.5176V39.3525L34.7256 35.5605L31.9678 33.1475L28.8652 30.0449L26.1074 27.6318L21.9707 23.4951H21.2812ZM20.9365 27.9766L20.5918 29.3555L26.7969 35.5605L29.5547 37.9736L33.002 41.0762L34.3809 40.7314L34.0361 39.3525L29.8994 35.5605L27.1416 32.8027L24.3838 30.3896L21.9707 27.9766H20.9365ZM20.9365 32.8027L20.5918 33.8369L21.9707 35.5605L24.7285 37.9736L28.1758 41.4209H29.5547L29.21 39.6973L25.7627 36.25L23.0049 33.8369L21.9707 32.8027H20.9365ZM30.9336 43.4893L31.623 44.8682L33.3467 46.5918L33.6914 67.6201L35.415 67.9648V46.5918L33.002 44.1787L31.9678 43.4893H30.9336ZM16.7998 76.2383L15.0762 77.9619L14.7314 80.375L15.7656 82.4434L17.4893 83.4775L20.5918 83.1328L21.9707 81.4092V77.9619L19.9023 76.2383H16.7998Z" fill="#002930"/>
<path d="M45.7568 74.5146H51.9619L57.4775 75.8936L62.3037 78.3066L66.0957 81.0645L69.1982 84.167L70.9219 86.5801L72.3008 89.3379L71.9561 91.0615L71.6113 91.4062L68.5088 91.751H65.0615L61.6143 91.4062L57.1328 86.5801L53.3408 84.8564L52.3066 84.5117H45.7568L41.9648 85.8906L39.207 87.959L36.7939 90.7168L35.0703 95.1982L34.7256 96.5771V104.161L36.1045 108.298L38.1729 111.745L40.9307 114.158L44.3779 115.882L46.791 116.571H51.9619L56.0986 115.192L59.2012 113.124L61.6143 110.021L62.9932 106.574H55.4092L50.9277 106.229L50.583 105.885V99.335L51.2725 98.6455L54.375 98.3008H68.8535L71.9561 98.6455L72.6455 99.335L72.9902 116.227V124.155L72.3008 125.189H65.751L65.4062 124.845L65.0615 118.64L62.6484 120.708L59.5459 123.121L55.7539 124.845L52.6514 125.534H44.0332L38.8623 124.155L34.3809 121.742L30.9336 118.984L27.4863 114.503L25.0732 109.677L23.6943 103.816V96.2324L25.0732 90.7168L27.4863 85.8906L30.5889 82.0986L34.0361 78.9961L39.207 76.2383L43.6885 74.8594L45.7568 74.5146Z" fill="black"/>
<path d="M160.896 75.5488H170.203L171.927 78.3066L175.719 87.6143L179.166 95.8877L183.303 105.54L188.818 118.64L190.887 123.811L190.542 125.189H180.545L179.166 123.466L176.063 115.882V114.848H156.069L154.346 118.984L151.933 124.5L150.554 125.189H140.901L140.557 124.5L143.314 117.605L146.417 110.366L151.933 96.9219L157.104 84.167L160.551 75.8936L160.896 75.5488ZM165.722 89.3379L163.998 92.7852L160.551 101.403L159.172 105.195L159.517 106.574H172.271L172.616 105.54L169.858 97.9561L166.756 90.3721L165.722 89.3379Z" fill="black"/>
<path d="M79.8848 75.5488H89.5371L89.8818 75.8936L90.2266 108.987L90.916 111.745L92.2949 114.158L94.708 115.882L97.4658 116.571H100.913L104.705 115.192L107.118 112.435L107.808 111.056L108.152 108.987L108.497 75.5488H118.839V109.332L117.46 114.848L115.392 118.984L111.944 122.432L107.118 124.845L104.36 125.534L101.258 125.879H97.8105L92.9844 125.189L88.8477 123.811L85.7451 121.742L83.332 119.329L80.9189 114.503L80.2295 110.711L79.8848 106.574L79.54 94.5088V75.8936L79.8848 75.5488Z" fill="black"/>
<path d="M77.4717 37.9736H89.5371L91.2607 39.6973L92.9844 41.0762V41.7656L94.3633 42.4551L98.8447 46.9365V60.0361L98.5 61.0703L95.7422 63.4834L90.916 68.3096H90.2266V68.999L88.5029 69.6885H77.8164L75.0586 67.2754L73.335 65.8965L71.9561 64.5176V63.8281L70.5771 63.1387L68.1641 60.7256V46.9365L74.3691 40.7314H75.0586L75.748 39.3525L77.4717 37.9736Z" fill="#002930"/>
<path d="M41.6201 0.0537109H43.6885V6.60352H45.4121V0.0537109H47.1357L47.4805 0.398438V6.60352H48.8594V0.0537109H50.9277V6.60352H52.6514V0.0537109H54.7197L55.0645 6.25879L56.4434 6.60352V0.0537109H58.5117V6.60352H60.2354V0.0537109H62.3037V6.60352H63.6826L64.0273 0.0537109H66.0957V6.60352H67.8193V0.0537109H69.8877V6.60352H71.6113V0.0537109H73.6797V6.60352H75.4033V0.0537109H77.4717L77.8164 0.398438V6.94824L79.1953 7.6377L82.6426 8.67188L82.9873 9.0166L87.4688 9.36133H95.7422L103.671 9.70605L104.016 10.0508V12.1191L103.671 12.4639L87.8135 12.8086L83.332 16.6006H41.2754L37.1387 12.8086L33.3467 9.36133V8.32715L40.5859 7.98242L41.2754 6.60352L41.6201 0.0537109Z" fill="#002930"/>
<path d="M43.6885 18.3242H104.016V21.082L66.4404 21.4268L62.3037 25.2188L56.7881 30.3896L56.0986 32.1133L57.4775 31.7686L61.959 27.2871H62.6484L63.3379 25.9082L66.7852 22.8057L67.4746 22.4609H104.016V25.2188L68.1641 25.5635L64.7168 28.666L62.9932 30.0449L56.7881 36.25L56.4434 37.9736L59.2012 35.9053L67.8193 27.2871L68.5088 26.9424H104.016V29.3555L103.671 29.7002H101.947L102.292 34.8711L106.773 39.0078L107.118 39.6973V42.4551H108.842V43.834H105.739L105.395 43.4893L105.05 40.3867L102.637 37.6289L100.224 35.5605V29.7002L69.1982 30.0449L65.4062 33.8369L62.6484 36.25L57.1328 41.7656H56.4434L56.7881 67.6201L57.1328 68.6543L54.7197 68.999L54.375 30.3896L52.9961 27.6318L50.2383 24.874L47.4805 22.4609L43.6885 19.0137V18.3242Z" fill="#002930"/>
<path d="M61.6143 132.429H87.124V137.944L86.4346 138.634H68.1641L68.5088 147.597L84.0215 147.941L85.0557 148.286V154.146L68.5088 154.491V163.799L86.7793 164.144L87.4688 164.833V169.659L87.124 170.349L69.8877 170.693L61.2695 170.349L60.9248 169.659V135.531L61.2695 132.773L61.6143 132.429Z" fill="black"/>
<path d="M38.1729 131.739H43.3438L47.4805 132.773L51.2725 135.531L53.3408 138.289L54.0303 140.013V142.426L53.6855 142.771H49.8936L48.1699 142.081L46.1016 139.668L43.3438 138.289H37.8281L35.7598 139.323L34.3809 141.047V143.805L35.7598 145.528L41.2754 147.597L47.1357 149.32L50.9277 151.389L52.9961 153.112L54.7197 156.56L55.0645 158.628V161.386L54.0303 164.833L51.9619 167.591L48.8594 169.659L44.7227 171.038H37.8281L34.0361 170.004L30.9336 168.28L28.1758 165.522L26.4521 161.73V158.628L27.1416 158.283H32.6572L33.3467 158.973L34.7256 163.109L36.4492 163.799L38.5176 164.488H42.999L46.1016 163.454L47.4805 161.73L47.8252 161.041V158.628L46.1016 156.904L41.9648 155.181L34.3809 152.768L30.9336 151.044L28.5205 148.631L27.1416 145.184V141.047L28.5205 137.255L30.9336 134.497L35.0703 132.429L38.1729 131.739Z" fill="black"/>
<path d="M127.802 132.429H134.352L134.696 157.938L135.73 161.386L137.454 163.454L140.557 164.488H143.659L146.762 163.454L148.485 161.73L149.52 159.662L149.864 157.249L150.209 132.773L150.554 132.429H156.759L157.104 132.773V157.938L156.069 163.109L154.346 166.212L151.933 168.625L148.485 170.349L146.072 171.038H138.488L134.352 169.659L130.904 167.246L128.836 164.488L127.457 160.352L127.112 156.215V135.876L127.457 132.773L127.802 132.429Z" fill="black"/>
<path d="M167.101 132.084H179.855L184.682 132.773L188.818 134.842L190.887 136.565L192.61 139.668L193.3 142.081V146.562L191.921 150.699L188.818 154.146L185.371 155.87L182.613 156.56H171.927V170.349H165.032V132.429L167.101 132.084ZM172.271 138.289L171.927 138.634V150.01L172.271 150.354H180.89L183.647 149.32L185.371 147.252L186.061 145.184L185.716 141.736L184.337 139.668L182.613 138.634L180.89 138.289H172.271Z" fill="black"/>
<path d="M126.768 75.5488H137.109V124.845L136.765 125.189H127.112L126.423 122.776V78.9961L126.768 75.5488Z" fill="black"/>
<path d="M90.916 132.429H121.252L121.597 132.773V137.6L121.252 138.289L110.221 138.634L109.876 170.349L103.326 170.693L102.637 170.004V138.634L90.916 138.289L90.5713 136.221V133.463L90.916 132.429Z" fill="black"/>
<path d="M120.907 22.1162H124.354V71.7568L124.01 72.1016H120.907L120.562 71.7568V22.4609L120.907 22.1162Z" fill="#002930"/>
<path d="M130.56 22.1162H134.007L134.352 44.5234V71.7568L134.007 72.1016H130.56V22.1162Z" fill="#002930"/>
<path d="M110.91 22.1162H114.357V72.1016H110.91L110.565 57.9678V45.5576L110.91 22.1162Z" fill="#002930"/>
<path d="M125.733 22.1162H129.181V72.1016H126.078L125.733 71.7568V22.1162Z" fill="#002930"/>
<path d="M115.736 22.1162H119.184V72.1016H116.081L115.736 69.3438V22.1162Z" fill="#002930"/>
<path d="M14.7314 91.751H17.1445L19.2129 93.1299L20.2471 95.543L19.5576 97.9561L17.4893 99.6797L14.042 100.024V116.916L23.6943 117.261L24.0391 122.432L27.1416 121.742L29.5547 122.776L30.5889 124.155L30.9336 126.224L29.8994 128.637L28.5205 129.671L26.1074 130.016L24.0391 128.981L23.0049 127.947L22.6602 126.913V124.5L23.0049 123.121L21.626 122.087L21.9707 118.984L12.3184 118.64L11.9736 118.295V97.6113L11.6289 95.1982L12.6631 93.1299L13.6973 92.0957L14.7314 91.751ZM14.7314 93.4746L13.6973 94.1641L13.3525 96.5771L14.7314 98.3008H17.1445L18.5234 96.5771L18.1787 94.5088L17.1445 93.4746H14.7314ZM25.7627 123.466L24.3838 124.845V126.913L25.7627 128.292H27.8311L29.21 126.913V124.845L27.8311 123.466H25.7627Z" fill="#002930"/>
<path d="M135.386 9.70605H138.488L140.557 11.4297L141.246 13.498L140.901 15.9111L140.212 16.6006L139.867 30.0449L152.967 29.7002L154.346 28.666H157.793L159.172 29.3555L160.206 31.0791V33.8369L158.482 35.9053L157.793 36.25H154.69L152.967 35.2158L152.277 33.8369V31.7686H138.144V17.6348H135.73L133.662 16.2559L132.973 14.5322L130.904 13.8428V12.8086L132.973 12.1191L134.696 10.0508L135.386 9.70605ZM136.42 11.085L134.696 12.4639V14.5322L136.42 16.2559L138.488 15.9111L139.522 14.877V12.8086L137.799 11.085H136.42ZM155.035 30.0449L153.656 31.7686L154.001 33.8369L155.035 34.8711H157.448L158.827 33.1475L158.482 31.0791L157.104 30.0449H155.035Z" fill="#002930"/>
<path d="M136.42 57.2783L146.762 57.623V58.6572L150.554 59.002L153.656 62.1045L155.38 64.1729L170.203 64.5176L172.616 64.8623V65.207H155.035L151.933 61.7598L150.554 60.3809L144.004 60.0361L143.659 61.0703H137.109V61.7598L146.417 62.1045L147.106 63.1387L150.898 63.4834L154.001 66.5859L155.035 67.9648L162.619 68.3096V68.6543L155.035 68.999L150.898 64.8623L144.004 64.5176V65.5518L136.42 65.8965V57.2783Z" fill="#002930"/>
<path d="M136.765 47.9707L146.417 48.3154L146.762 49.3496H150.209L157.104 56.2441L157.448 56.9336L182.958 57.2783L183.992 57.9678L182.269 58.3125H157.793L155.38 56.2441L153.312 53.8311L150.898 51.7627L149.864 50.7285H146.762L144.004 51.0732V51.7627L142.97 52.1074H136.42V48.3154L136.765 47.9707Z" fill="#002930"/>
<path d="M136.42 43.4893H143.314L143.659 43.834L146.762 44.5234L147.451 44.8682L151.933 45.2129L158.482 51.7627L172.271 52.1074L173.306 52.7969H158.138L156.414 51.418V50.7285L155.035 50.0391L152.622 47.2812L151.243 46.2471L143.659 45.9023L143.314 47.2812L136.765 47.626L136.42 47.2812V43.4893Z" fill="#002930"/>
<path d="M0.942383 67.2754H4.04492V69.3438H7.14746L7.49219 69.6885V74.5146L7.14746 74.8594H4.04492L3.7002 76.583H1.28711L0.597656 75.8936V67.6201L0.942383 67.2754Z" fill="#002930"/>
<path d="M0.942383 29.3555H4.04492V31.4238H7.49219V36.5947L7.14746 36.9395H4.04492V38.3184H0.597656V29.7002L0.942383 29.3555Z" fill="#002930"/>
<path d="M88.8477 13.8428H103.671L104.016 14.1875V16.6006L85.7451 16.9453L85.4004 16.2559L88.1582 14.1875L88.8477 13.8428Z" fill="#002930"/>
<path d="M3.01074 0.743164L4.04492 1.08789L4.38965 3.15625L7.49219 3.50098V8.32715L7.14746 8.67188H4.04492V10.3955H0.942383V1.08789L3.01074 0.743164Z" fill="#002930"/>
<path d="M136.765 61.7598L146.417 62.1045L147.106 63.1387L150.898 63.4834L154.001 66.5859L155.035 67.9648L162.619 68.3096V68.6543L155.035 68.999L150.898 64.8623L144.004 64.5176V65.5518L136.42 65.8965V62.1045L136.765 61.7598Z" fill="#002930"/>
<path d="M136.42 66.2412L146.762 66.5859L147.106 67.2754L151.243 67.6201L151.588 68.6543L147.106 68.999L146.072 69.3438H143.659V70.0332L140.901 70.3779H136.42V66.2412Z" fill="#002930"/>
<path d="M136.42 52.7969H146.417L146.762 54.1758H151.243L151.588 55.21L144.004 55.5547L143.314 56.5889L136.765 56.9336L136.42 56.5889V52.7969Z" fill="#002930"/>
<path d="M111.255 9.70605H114.357L116.081 11.085L116.426 12.4639L121.597 12.8086L122.631 13.498V14.1875L116.771 14.5322L116.081 16.6006L114.357 17.6348H111.255L109.531 16.6006L108.842 15.2217V12.1191L109.531 10.7402L111.255 9.70605ZM111.944 11.085L110.221 12.8086L110.565 15.2217L111.944 16.2559L114.357 15.9111L115.392 14.1875L115.047 12.1191L113.668 11.085H111.944Z" fill="#002930"/>
<path d="M13.3525 125.189L15.7656 125.534L17.834 127.258L18.1787 127.947V130.705L16.7998 132.773L15.0762 133.463L12.3184 133.118L10.5947 131.739L10.25 131.05V127.603L11.9736 125.879L13.3525 125.189ZM13.3525 126.913L11.6289 128.292V130.36L13.0078 131.739H15.0762L16.4551 130.705V128.292L15.0762 126.913H13.3525Z" fill="#002930"/>
<path d="M72.6455 37.2842H75.4033V38.3184L72.6455 40.7314L68.1641 45.2129H67.4746V42.4551L72.6455 37.2842Z" fill="#002930"/>
<path d="M99.1895 62.1045H99.8789V64.5176L98.5 66.2412L95.7422 68.6543L94.0186 70.0332L91.6055 69.6885L92.9844 67.9648H93.6738L94.3633 66.5859L95.7422 65.8965L96.4316 64.5176L99.1895 62.1045Z" fill="#002930"/>
<path d="M91.6055 37.2842H93.6738L95.7422 38.6631L99.5342 42.4551L99.8789 44.8682H98.8447L95.3975 41.7656L91.6055 37.9736V37.2842Z" fill="#002930"/>
<path d="M67.4746 62.4492L68.8535 63.1387L75.4033 69.6885V70.3779H72.9902L67.8193 65.5518L67.1299 63.4834L67.4746 62.4492Z" fill="#002930"/>
<path d="M1.63184 18.3242H8.18164V21.082H1.63184V18.3242Z" fill="#002930"/>
<path d="M1.63184 22.4609H8.18164V25.2188H1.63184V22.4609Z" fill="#002930"/>
<path d="M1.63184 14.1875H8.18164V16.6006L7.83691 16.9453H1.63184V14.1875Z" fill="#002930"/>
<path d="M17.4893 77.6172H19.5576L20.5918 78.9961L20.2471 81.0645L19.5576 81.7539H17.4893L16.4551 80.375L16.7998 78.3066L17.4893 77.6172Z" fill="#002930"/>
<path d="M4.73438 46.5918H7.49219L8.18164 46.9365V49.3496L7.83691 49.6943H3.7002L3.35547 49.3496V46.9365L4.73438 46.5918Z" fill="#002930"/>
<path d="M3.35547 42.4551H8.18164V45.2129H3.35547V42.4551Z" fill="#002930"/>
<path d="M3.35547 59.6914H8.18164V62.4492H3.7002L3.35547 62.1045V59.6914Z" fill="#002930"/>
<path d="M3.7002 55.21H8.18164V57.9678H3.35547V55.5547L3.7002 55.21Z" fill="#002930"/>
<path d="M3.7002 51.0732H8.18164V53.8311H3.7002L3.35547 53.4863V51.418L3.7002 51.0732Z" fill="#002930"/>
<path d="M17.834 6.60352L19.5576 6.94824L20.5918 8.32715L20.2471 10.0508L19.5576 10.7402H17.4893L16.4551 9.70605V7.98242L17.834 6.60352Z" fill="#002930"/>
</svg>
