<?xml version="1.0" encoding="UTF-8"?>
<svg version="1.1" viewBox="0 0 1024 1024" width="1024" height="1024" xmlns="http://www.w3.org/2000/svg">
<path transform="translate(260,156)" d="m0 0h32l17 17 8 7 11 11 8 7 17 16 7 7 7 6 5 7 2 6v32l-1 74-3 7-4 3h-8l-1-4v-94l-10-10-8-7-9-9-8-7-8-8-2-1v-2h-2v-2h-2v-2l-4-2-10-10-5-4h-3l2 4 4 5 8 7 10 10 8 7 12 12 8 7 13 12 2 4v94l-5-1-1-94-12-11-13-12-8-8-8-7-14-14-5-2v3l25 25 8 7 16 15 6 5 1 2 1 91-4 1h-9l-5 5-3 1-2 6-15 14-9 10-7 12h-42l1-4 5-2v-206l1-32h5zm16 10-6 5-1 8 3 5 3 3h9l5-3 2-9-3-6-4-3zm12 53-3 3 15 15 8 7 10 10 8 7 6 5 1 11 1 72h4v-84l-11-11-8-7-9-9-8-7-12-12zm-1 13-1 4 18 18 8 7 10 9 4-1-1-4-12-11-8-8-8-7-7-7zm0 14-1 3 4 5 8 7 10 10h4l-1-5-10-10-8-7-3-3zm29 31 2 4 5 5 1 61 5 1v-62l-7-7-3-2zm-41 95-5 5-1 7 3 6 5 3 9-1 4-5v-10l-6-5z" fill="#F6C76C"/>
<path transform="translate(359,367)" d="m0 0h18l16 4 14 7 11 8 9 9 5 7 4 8-1 5-1 1-9 1h-10l-10-1-13-14-11-5-3-1h-19l-11 4-8 6-7 8-5 13-1 4v22l4 12 6 10 8 7 10 5 7 2h15l12-4 9-6 7-9 4-10h-22l-13-1-1-1v-19l2-2 9-1h42l9 1 2 2 1 49v23l-2 3h-19l-1-1-1-18-7 6-9 7-11 5-9 2h-25l-15-4-13-7-10-8-10-13-7-14-4-17v-22l4-16 7-14 9-11 10-9 15-8 13-4z" fill="#FDFDFD"/>
<path transform="translate(693,370)" d="m0 0h27l5 8 11 27 10 24 12 28 16 38 6 15-1 4h-29l-4-5-9-22v-3h-58l-5 12-7 16-4 2h-28l-1-2 8-20 9-21 16-39 15-37 10-24zm14 40-5 10-10 25-4 11 1 4h37l1-3-8-22-9-22z" fill="#FEFEFE"/>
<path transform="translate(458,370)" d="m0 0h28l1 1 1 96 2 8 4 7 7 5 8 2h10l11-4 7-8 2-4 1-6 1-97h30v98l-4 16-6 12-10 10-14 7-8 2-9 1h-10l-14-2-12-4-9-6-7-7-7-14-2-11-1-12-1-35v-54z" fill="#FEFEFE"/>
<path transform="translate(451,261)" d="m0 0h35l5 5 5 4v2l4 2 13 13v38l-1 3-8 7-14 14h-2v2l-5 2h-31l-8-7-5-4-4-4v-2l-4-2-7-7v-40l18-18h2l2-4z" fill="#F6C76C"/>
<path transform="translate(347,151)" d="m0 0h6v19h5v-19h5l1 1v18h4v-19h6v19h5v-19h6l1 18 4 1v-19h6v19h5v-19h6v19h4l1-19h6v19h5v-19h6v19h5v-19h6v19h5v-19h6l1 1v19l4 2 10 3 1 1 13 1h24l23 1 1 1v6l-1 1-46 1-13 11h-122l-12-11-11-10v-3l21-1 2-4z" fill="#F6C76C"/>
<path transform="translate(353,204)" d="m0 0h175v8l-109 1-12 11-16 15-2 5 4-1 13-13h2l2-4 10-9 2-1h106v8l-104 1-10 9-5 4-18 18-1 5 8-6 25-25 2-1h103v7l-1 1h-5l1 15 13 12 1 2v8h5v4h-9l-1-1-1-9-7-8-7-6v-17l-90 1-11 11-8 7-16 16h-2l1 75 1 3-7 1-1-112-4-8-8-8-8-7-11-10z" fill="#F6C76C"/>
<path transform="translate(405,535)" d="m0 0h74v16l-2 2h-53l1 26 45 1 3 1v17l-48 1v27l53 1 2 2v14l-1 2-50 1-25-1-1-2v-99l1-8z" fill="#FEFEFE"/>
<path transform="translate(337,533)" d="m0 0h15l12 3 11 8 6 8 2 5v7l-1 1h-11l-5-2-6-7-8-4h-16l-6 3-4 5v8l4 5 16 6 17 5 11 6 6 5 5 10 1 6v8l-3 10-6 8-9 6-12 4h-20l-11-3-9-5-8-8-5-11v-9l2-1h16l2 2 4 12 5 2 6 2h13l9-3 4-5 1-2v-7l-5-5-12-5-22-7-10-5-7-7-4-10v-12l4-11 7-8 12-6z" fill="#FEFEFE"/>
<path transform="translate(597,535)" d="m0 0h19l1 74 3 10 5 6 9 3h9l9-3 5-5 3-6 1-7 1-71 1-1h18l1 1v73l-3 15-5 9-7 7-10 5-7 2h-22l-12-4-10-7-6-8-4-12-1-12v-59l1-9z" fill="#FEFEFE"/>
<path transform="translate(711,534)" d="m0 0h37l14 2 12 6 6 5 5 9 2 7v13l-4 12-9 10-10 5-8 2h-31v40h-20v-110zm15 18-1 1v33l1 1h25l8-3 5-6 2-6-1-10-4-6-5-3-5-1z" fill="#FEFEFE"/>
<path transform="translate(594,370)" d="m0 0h30v143l-1 1h-28l-2-7v-127z" fill="#FEFEFE"/>
<path transform="translate(490,535)" d="m0 0h88l1 1v14l-1 2-32 1-1 92-19 1-2-2v-91l-34-1-1-6v-8z" fill="#FEFEFE"/>
<path transform="translate(577,215)" d="m0 0h10v144l-1 1h-9l-1-1v-143z" fill="#F6C76C"/>
<path transform="translate(605,215)" d="m0 0h10l1 65v79l-1 1h-10z" fill="#F6C76C"/>
<path transform="translate(548,215)" d="m0 0h10v145h-10l-1-41v-36z" fill="#F6C86F"/>
<path transform="translate(591,215)" d="m0 0h10v145h-9l-1-1z" fill="#F6C76C"/>
<path transform="translate(562,215)" d="m0 0h10v145h-9l-1-8z" fill="#F6C76C"/>
<path transform="translate(269,417)" d="m0 0h7l6 4 3 7-2 7-6 5-10 1v49l28 1 1 15 9-2 7 3 3 4 1 6-3 7-4 3-7 1-6-3-3-3-1-3v-7l1-4-4-3 1-9-28-1-1-1v-60l-1-7 3-6 3-3zm0 5-3 2-1 7 4 5h7l4-5-1-6-3-3zm32 87-4 4v6l4 4h6l4-4v-6l-4-4z" fill="#F6C870"/>
<path transform="translate(619,179)" d="m0 0h9l6 5 2 6-1 7-2 2-1 39 38-1 4-3h10l4 2 3 5v8l-5 6-2 1h-9l-5-3-2-4v-6h-41v-41h-7l-6-4-2-5-6-2v-3l6-2 5-6zm3 4-5 4v6l5 5 6-1 3-3v-6l-5-5zm54 55-4 5 1 6 3 3h7l4-5-1-6-4-3z" fill="#F6C76C"/>
<path transform="translate(622,317)" d="m0 0 30 1v3l11 1 9 9 5 6 43 1 7 1v1h-51l-9-10-4-4-19-1-1 3h-19v2l27 1 2 3 11 1 9 9 3 4 22 1v1l-22 1-12-12-20-1v3l-22 1z" fill="#F6C76D"/>
<path transform="translate(623,290)" d="m0 0 28 1 1 3h10l20 20 1 2 74 1 3 2-5 1h-71l-7-6-6-7-7-6-3-3h-9l-8 1v2l-3 1h-19v-11z" fill="#F6C76D"/>
<path transform="translate(622,277)" d="m0 0h20l1 1 9 2 2 1 13 1 19 19 40 1 3 2h-44l-5-4v-2l-4-2-7-8-4-3-22-1-1 4-19 1-1-1z" fill="#F6C76D"/>
<path transform="translate(229,346)" d="m0 0h9v6h9l1 1v14l-1 1h-9l-1 5h-7l-2-2v-24z" fill="#F6C76C"/>
<path transform="translate(229,236)" d="m0 0h9v6h10v15l-1 1h-9v4h-10v-25z" fill="#F6C76C"/>
<path transform="translate(484,191)" d="m0 0h43l1 1v7l-53 1-1-2 8-6z" fill="#F6C76C"/>
<path transform="translate(235,153)" d="m0 0 3 1 1 6 9 1v14l-1 1h-9v5h-9v-27z" fill="#F6C76D"/>
<path transform="translate(623,330)" d="m0 0 28 1 2 3 11 1 9 9 3 4 22 1v1l-22 1-12-12-20-1v3l-22 1v-11z" fill="#F6C870"/>
<path transform="translate(622,343)" d="m0 0 30 1 1 2 12 1 1 3-13 1-3 1h-7v2l-8 1h-13z" fill="#F6C971"/>
<path transform="translate(622,304)" d="m0 0h29l1 4h13l1 3-22 1-2 3-19 1-1-1z" fill="#F6C76E"/>
<path transform="translate(549,179)" d="m0 0h9l5 4 1 4 15 1 3 2v2l-17 1-2 6-5 3h-9l-5-3-2-4v-9l2-4zm2 4-5 5 1 7 4 3 7-1 3-5-1-6-4-3z" fill="#F6C76C"/>
<path transform="translate(265,514)" d="m0 0 7 1 6 5 1 2v8l-4 6-5 2-8-1-5-4-1-2v-10l5-5zm0 5-5 4v6l4 4h6l4-3v-7l-4-4z" fill="#F6C76E"/>
<path transform="translate(437,259)" d="m0 0h8v3l-8 7-13 13h-2v-8z" fill="#F6C76E"/>
<path transform="translate(514,331)" d="m0 0h2v7l-4 5-8 7-5 4-7-1 4-5h2l2-4 4-2 2-4z" fill="#F6C973"/>
<path transform="translate(492,259)" d="m0 0h6l6 4 11 11 1 7h-3l-10-9-11-11z" fill="#F6C76C"/>
<path transform="translate(422,332)" d="m0 0 4 2 19 19v2h-7l-15-14-2-6z" fill="#F6C86F"/>
<path transform="translate(231,204)" d="m0 0h19v8h-19z" fill="#F6C76C"/>
<path transform="translate(231,192)" d="m0 0h19v7l-1 1h-18z" fill="#F6C76C"/>
<path transform="translate(242,216)" d="m0 0h7l1 1v7h-20l1-7z" fill="#F6C76C"/>
<path transform="translate(277,376)" d="m0 0h6l3 4-1 6-2 2h-6l-3-4 1-6z" fill="#F6C76C"/>
<path transform="translate(240,286)" d="m0 0h8l2 1v7l-1 1h-12l-1-1v-7z" fill="#F6C871"/>
<path transform="translate(236,274)" d="m0 0h14v8h-14z" fill="#F6C76C"/>
<path transform="translate(236,324)" d="m0 0h14v8h-13l-1-1z" fill="#F6C76D"/>
<path transform="translate(237,311)" d="m0 0h13v8h-14v-7z" fill="#F6C76E"/>
<path transform="translate(237,299)" d="m0 0h13v8h-13l-1-1v-6z" fill="#F6C76C"/>
<path transform="translate(278,170)" d="m0 0 5 1 3 4-1 5-2 2h-6l-3-3v-5z" fill="#F6C76C"/>
</svg>
